<?xml version="1.0" encoding="UTF-8" standalone="no"?><!DOCTYPE svg PUBLIC "-//W3C//DTD SVG 1.1//EN" "http://www.w3.org/Graphics/SVG/1.1/DTD/svg11.dtd"><svg width="100%" height="100%" viewBox="0 0 32 32" version="1.1" xmlns="http://www.w3.org/2000/svg" xmlns:xlink="http://www.w3.org/1999/xlink" xml:space="preserve" xmlns:serif="http://www.serif.com/" style="fill-rule:evenodd;clip-rule:evenodd;stroke-linejoin:round;stroke-miterlimit:2;"><g><rect x="3.4" y="27.2" width="2.8" height="2.8" style="fill:#05caa3;"/><rect x="6.2" y="27.2" width="2.8" height="2.8"/><rect x="6.2" y="24.4" width="2.8" height="2.8"/><rect x="3.4" y="24.4" width="2.8" height="2.8" style="fill:#05caa3;"/><rect x="6.2" y="21.6" width="2.8" height="2.8"/><rect x="9" y="21.6" width="2.8" height="2.8"/><rect x="9" y="18.8" width="2.8" height="2.8"/><rect x="6.2" y="18.8" width="2.8" height="2.8" style="fill:#05caa3;"/><rect x="6.2" y="16" width="2.8" height="2.8" style="fill:#05caa3;"/><rect x="9" y="16" width="2.8" height="2.8"/><rect x="3.4" y="21.6" width="2.8" height="2.8" style="fill:#05caa3;"/><rect x="9" y="13.2" width="2.8" height="2.8" style="fill:#05caa3;"/><rect x="11.8" y="13.2" width="2.8" height="2.8"/><rect x="11.8" y="10.4" width="2.8" height="2.8"/><rect x="9" y="10.4" width="2.8" height="2.8" style="fill:#05caa3;"/><rect x="25.8" y="27.2" width="2.8" height="2.8" style="fill:#05caa3;"/><rect x="23" y="27.2" width="2.8" height="2.8"/><rect x="23" y="24.4" width="2.8" height="2.8"/><rect x="25.8" y="24.4" width="2.8" height="2.8" style="fill:#05caa3;"/><rect x="23" y="21.6" width="2.8" height="2.8"/><rect x="20.2" y="21.6" width="2.8" height="2.8"/><rect x="20.2" y="18.8" width="2.8" height="2.8"/><rect x="23" y="18.8" width="2.8" height="2.8" style="fill:#05caa3;"/><rect x="23" y="16" width="2.8" height="2.8" style="fill:#05caa3;"/><rect x="20.2" y="16" width="2.8" height="2.8"/><rect x="25.8" y="21.6" width="2.8" height="2.8" style="fill:#05caa3;"/><rect x="20.2" y="13.2" width="2.8" height="2.8" style="fill:#05caa3;"/><rect x="17.4" y="13.2" width="2.8" height="2.8"/><rect x="20.2" y="10.4" width="2.8" height="2.8" style="fill:#05caa3;"/><rect x="9" y="7.6" width="2.8" height="2.8" style="fill:#05caa3;"/><rect x="11.8" y="7.6" width="2.8" height="2.8"/><rect x="11.8" y="4.8" width="2.8" height="2.8" style="fill:#05caa3;"/><rect x="14.6" y="4.8" width="2.8" height="2.8"/><rect x="14.6" y="2" width="2.8" height="2.8" style="fill:#05caa3;"/><rect x="17.4" y="4.8" width="2.8" height="2.8" style="fill:#05caa3;"/><rect x="11.8" y="18.8" width="2.8" height="2.8"/><rect x="14.6" y="18.8" width="2.8" height="2.8"/><rect x="17.4" y="18.8" width="2.8" height="2.8"/><rect x="14.6" y="7.6" width="2.8" height="2.8"/><rect x="17.4" y="7.6" width="2.8" height="2.8"/><rect x="20.2" y="7.6" width="2.8" height="2.8" style="fill:#05caa3;"/><rect x="17.4" y="10.4" width="2.8" height="2.8"/></g></svg>